<mxfile host="app.diagrams.net" modified="2021-07-16T06:42:15.480Z" agent="5.0 (Windows NT 10.0; Win64; x64) AppleWebKit/537.36 (KHTML, like Gecko) Chrome/91.0.4472.124 Safari/537.36" etag="4vP6zfM-tpeQE7K1hQSP" version="14.8.0" type="github">
  <diagram id="h6atkcZZxpdWhpVkW__E" name="Page-1">
    <mxGraphModel dx="2249" dy="706" grid="1" gridSize="10" guides="1" tooltips="1" connect="1" arrows="1" fold="1" page="1" pageScale="1" pageWidth="827" pageHeight="1169" math="0" shadow="0">
      <root>
        <mxCell id="0" />
        <mxCell id="1" parent="0" />
        <mxCell id="frB0Xn6dIRXcjTTBejvv-3" value="" style="edgeStyle=orthogonalEdgeStyle;rounded=0;orthogonalLoop=1;jettySize=auto;html=1;" edge="1" parent="1" source="frB0Xn6dIRXcjTTBejvv-1" target="frB0Xn6dIRXcjTTBejvv-2">
          <mxGeometry relative="1" as="geometry" />
        </mxCell>
        <mxCell id="frB0Xn6dIRXcjTTBejvv-1" value="游戏管理" style="rounded=0;whiteSpace=wrap;html=1;" vertex="1" parent="1">
          <mxGeometry x="60" y="170" width="120" height="40" as="geometry" />
        </mxCell>
        <mxCell id="frB0Xn6dIRXcjTTBejvv-5" value="" style="edgeStyle=orthogonalEdgeStyle;rounded=0;orthogonalLoop=1;jettySize=auto;html=1;" edge="1" parent="1" source="frB0Xn6dIRXcjTTBejvv-2" target="frB0Xn6dIRXcjTTBejvv-4">
          <mxGeometry relative="1" as="geometry" />
        </mxCell>
        <mxCell id="frB0Xn6dIRXcjTTBejvv-2" value="配置文件管理" style="rounded=0;whiteSpace=wrap;html=1;" vertex="1" parent="1">
          <mxGeometry x="260" y="170" width="120" height="40" as="geometry" />
        </mxCell>
        <mxCell id="frB0Xn6dIRXcjTTBejvv-4" value="配置下载节点" style="rounded=0;whiteSpace=wrap;html=1;" vertex="1" parent="1">
          <mxGeometry x="460" y="170" width="120" height="40" as="geometry" />
        </mxCell>
        <mxCell id="frB0Xn6dIRXcjTTBejvv-8" value="" style="edgeStyle=orthogonalEdgeStyle;rounded=0;orthogonalLoop=1;jettySize=auto;html=1;" edge="1" parent="1" source="frB0Xn6dIRXcjTTBejvv-6" target="frB0Xn6dIRXcjTTBejvv-7">
          <mxGeometry relative="1" as="geometry" />
        </mxCell>
        <mxCell id="frB0Xn6dIRXcjTTBejvv-20" style="edgeStyle=orthogonalEdgeStyle;rounded=0;orthogonalLoop=1;jettySize=auto;html=1;exitX=1;exitY=0.5;exitDx=0;exitDy=0;entryX=0;entryY=0.5;entryDx=0;entryDy=0;" edge="1" parent="1" source="frB0Xn6dIRXcjTTBejvv-6" target="frB0Xn6dIRXcjTTBejvv-18">
          <mxGeometry relative="1" as="geometry" />
        </mxCell>
        <mxCell id="frB0Xn6dIRXcjTTBejvv-21" style="edgeStyle=orthogonalEdgeStyle;rounded=0;orthogonalLoop=1;jettySize=auto;html=1;exitX=1;exitY=0.5;exitDx=0;exitDy=0;entryX=0;entryY=0.5;entryDx=0;entryDy=0;" edge="1" parent="1" source="frB0Xn6dIRXcjTTBejvv-6" target="frB0Xn6dIRXcjTTBejvv-19">
          <mxGeometry relative="1" as="geometry" />
        </mxCell>
        <mxCell id="frB0Xn6dIRXcjTTBejvv-6" value="用户信息" style="rounded=0;whiteSpace=wrap;html=1;" vertex="1" parent="1">
          <mxGeometry x="60" y="240" width="120" height="40" as="geometry" />
        </mxCell>
        <mxCell id="frB0Xn6dIRXcjTTBejvv-7" value="固定下载节点" style="rounded=0;whiteSpace=wrap;html=1;" vertex="1" parent="1">
          <mxGeometry x="260" y="240" width="120" height="40" as="geometry" />
        </mxCell>
        <mxCell id="frB0Xn6dIRXcjTTBejvv-10" value="" style="edgeStyle=orthogonalEdgeStyle;rounded=0;orthogonalLoop=1;jettySize=auto;html=1;" edge="1" parent="1" source="frB0Xn6dIRXcjTTBejvv-9" target="frB0Xn6dIRXcjTTBejvv-6">
          <mxGeometry relative="1" as="geometry" />
        </mxCell>
        <mxCell id="frB0Xn6dIRXcjTTBejvv-12" style="edgeStyle=orthogonalEdgeStyle;rounded=0;orthogonalLoop=1;jettySize=auto;html=1;exitX=1;exitY=0.5;exitDx=0;exitDy=0;entryX=0;entryY=0.5;entryDx=0;entryDy=0;" edge="1" parent="1" source="frB0Xn6dIRXcjTTBejvv-9" target="frB0Xn6dIRXcjTTBejvv-1">
          <mxGeometry relative="1" as="geometry" />
        </mxCell>
        <mxCell id="frB0Xn6dIRXcjTTBejvv-9" value="OP v4.2.1" style="rounded=0;whiteSpace=wrap;html=1;" vertex="1" parent="1">
          <mxGeometry x="-110" y="205" width="120" height="40" as="geometry" />
        </mxCell>
        <mxCell id="frB0Xn6dIRXcjTTBejvv-18" value="会员中心信息查询" style="rounded=0;whiteSpace=wrap;html=1;" vertex="1" parent="1">
          <mxGeometry x="260" y="290" width="120" height="40" as="geometry" />
        </mxCell>
        <mxCell id="frB0Xn6dIRXcjTTBejvv-19" value="测试专用固定cn2节点" style="rounded=0;whiteSpace=wrap;html=1;" vertex="1" parent="1">
          <mxGeometry x="260" y="340" width="120" height="40" as="geometry" />
        </mxCell>
      </root>
    </mxGraphModel>
  </diagram>
</mxfile>
